# xmcd
#
# Track frame offsets:
# 150
# 18444
# 40815
# 58138
# 78944
# 92946
# 107740
# 123372
# 140797
# 161466
# 175586
# 194429
# 210385
# 224129
# 239839
#
# Disc length: 3477 seconds
#
#
# Revision: 7
# Processed by: cddbd v1.5.1PL2 Copyright (c) Steve Scherf et al.
# Submitted via: FreeRIP 2.945 
#
DISCID=dc0d930f
DTITLE=Daniel - Em Qualquer Lugar do Mundo
DYEAR=2004
DGENRE=Rock
TTITLE0=Em Qualquer Lugar do Mundo
TTITLE1=A chama do Amor
TTITLE2=Correnteza e Emoção
TTITLE3=Querida
TTITLE4=Direto do Coração
TTITLE5=Jogado na Rua
TTITLE6=Memórias de Uma Paixão
TTITLE7=Boêmio Apaixonado
TTITLE8=Os Amantes
TTITLE9=Machuca Eu
TTITLE10=Bem Simplesinho
TTITLE11=Sombra Boa e Água Fresca
TTITLE12=Vou de Fusca
TTITLE13=Um Homem Que Chora à Toa
TTITLE14=Meu Pai
EXTD=Daniel     -  em qualquer lugar do mundo ID3G:  17 YEAR: 2004
EXTT0=
EXTT1=
EXTT2=
EXTT3=
EXTT4=
EXTT5=
EXTT6=
EXTT7=
EXTT8=
EXTT9=
EXTT10=
EXTT11=
EXTT12=
EXTT13=
EXTT14=
PLAYORDER=
